<?xml version="1.0"?>
<svg xmlns="http://www.w3.org/2000/svg" xmlns:xlink="http://www.w3.org/1999/xlink" version="1.1" viewBox="0 0 172 172" width="60px" height="60px"><g fill="none" fill-rule="nonzero" stroke="none" stroke-width="1" stroke-linecap="butt" stroke-linejoin="miter" stroke-miterlimit="10" stroke-dasharray="" stroke-dashoffset="0" font-family="none" font-weight="none" font-size="none" text-anchor="none" style="mix-blend-mode: normal"><path d="M0,172v-172h172v172z" fill="none"/><g fill="#2ecc71"><path d="M85.92161,11.46667c-9.4612,0.04484 -17.12161,7.72853 -17.12161,17.2c0,5.36067 2.47438,9.47962 5.11745,13.51589c2.4424,3.72667 -0.62412,8.6129 -5.05026,8.0625c-13.06627,-1.6168 -26.29271,-4.12083 -26.29271,-4.12083l-0.0112,0.0112c-0.79809,-0.17592 -1.6127,-0.26602 -2.42995,-0.26875c-6.33287,0 -11.46667,5.1338 -11.46667,11.46667v27.67005c0,5.21733 5.77051,8.45909 10.15651,5.63255c4.20253,-2.71187 8.57545,-5.09075 14.40052,-4.55755c7.19533,0.6536 13.50039,6.01624 15.11719,13.05677c2.56853,11.266 -5.91635,21.26484 -16.74089,21.26484c-4.988,0 -8.90351,-2.14901 -12.67604,-4.57995c-4.43187,-2.8552 -10.25729,0.28523 -10.25729,5.55417v13.73984c0,8.8408 5.13133,13.95261 11.46667,13.95261h45.86667h45.86667c6.33533,0 11.46667,-5.13133 11.46667,-11.46667v-80.26667c0,-6.33287 -5.1338,-11.46667 -11.46667,-11.46667c-0.8135,0.00353 -1.62432,0.09362 -2.41875,0.26875l-0.02239,-0.0112c0,0 -13.22644,2.50403 -26.29271,4.12083c-4.4376,0.5504 -7.48173,-4.35223 -5.02786,-8.09609c2.9068,-4.4376 5.60147,-8.99264 5.01667,-15.17318c-0.67653,-7.1724 -6.03917,-13.44467 -13.05677,-15.05c-1.40825,-0.3225 -2.79163,-0.46552 -4.14323,-0.45911z"/></g></g></svg>
